<?xml version="1.0" encoding="UTF-8"?>
<svg width="49px" height="49px" viewBox="0 0 49 49" version="1.1" xmlns="http://www.w3.org/2000/svg" xmlns:xlink="http://www.w3.org/1999/xlink">
    <title>Group 2 Copy 5</title>
    <g id="New-Design" stroke="none" stroke-width="1" fill="none" fill-rule="evenodd">
        <g id="Portfolio" transform="translate(-128.000000, -2138.000000)" fill="#FFFFFF">
            <g id="Group-2-Copy-5" transform="translate(128.000000, 2138.000000)">
                <rect id="Rectangle" opacity="0.0859520322" x="0" y="0" width="49" height="49" rx="24.5"></rect>
                <g id="Group" transform="translate(9.000000, 8.000000)" fill-rule="nonzero">
                    <g id="clock-copy">
                        <path d="M20,9.33333333 C20,11.5424667 18.2092,13.3333333 16,13.3333333 C13.7908667,13.3333333 12,11.5424667 12,9.33333333 C12,7.1242 13.7908667,5.33333333 16,5.33333333 C18.2092,5.33333333 20,7.1242 20,9.33333333 Z" id="Path"></path>
                        <path d="M26.6666667,12 C26.6666667,13.47276 25.4728,14.6666667 24,14.6666667 C22.5272,14.6666667 21.3333333,13.47276 21.3333333,12 C21.3333333,10.52724 22.5272,9.33333333 24,9.33333333 C25.4728,9.33333333 26.6666667,10.52724 26.6666667,12 Z" id="Path"></path>
                        <path d="M21.3333333,21.3333333 C21.3333333,18.3878667 18.9454667,16 16,16 C13.05448,16 10.6666667,18.3878667 10.6666667,21.3333333 L10.6666667,25.3333333 L21.3333333,25.3333333 L21.3333333,21.3333333 Z" id="Path"></path>
                        <path d="M10.6666667,12 C10.6666667,13.47276 9.47276,14.6666667 8,14.6666667 C6.52724,14.6666667 5.33333333,13.47276 5.33333333,12 C5.33333333,10.52724 6.52724,9.33333333 8,9.33333333 C9.47276,9.33333333 10.6666667,10.52724 10.6666667,12 Z" id="Path"></path>
                        <path d="M24,25.3333333 L24,21.3333333 C24,19.9278667 23.6376,18.6069333 23.0009333,17.4590667 C23.3202667,17.3769333 23.6550667,17.3333333 24,17.3333333 C26.2092,17.3333333 28,19.1241333 28,21.3333333 L28,25.3333333 L24,25.3333333 Z" id="Path"></path>
                        <path d="M8.99901333,17.4590667 C8.36246667,18.6069333 8,19.9278667 8,21.3333333 L8,25.3333333 L4,25.3333333 L4,21.3333333 C4,19.1241333 5.79086667,17.3333333 8,17.3333333 C8.34494667,17.3333333 8.67969333,17.3769333 8.99901333,17.4590667 Z" id="Path"></path>
                    </g>
                </g>
            </g>
        </g>
    </g>
</svg>